<svg xmlns="http://www.w3.org/2000/svg" xmlns:xlink="http://www.w3.org/1999/xlink" version="1.1" data-diagram-type="STATE" style="width:1436px;height:780px;background:#FFFFFF;" width="1436px" height="780px" viewBox="0 0 1436 780" zoomAndPan="magnify" preserveAspectRatio="none" contentStyleType="text/css"><?plantuml 1.2026.8?><defs/><g font-family="sans-serif" lengthAdjust="spacing"><g class="entity" data-qualified-name="confirmed" id="ent0001" data-source-line="6"><path d="M579.48,143 L896.483,143 A12.5,12.5 0 0 1 908.983,155.5 L908.983,169.297 L566.98,169.297 L566.98,155.5 A12.5,12.5 0 0 1 579.48,143" fill="#F1F1F1"/><rect x="566.98" y="143" width="342.003" height="101.297" fill="none" style="stroke:#181818;stroke-width:0.5;" rx="12.5" ry="12.5"/><line x1="566.98" y1="169.297" x2="908.983" y2="169.297" style="stroke:#181818;stroke-width:0.5;"/><text x="701.519" y="160.995" fill="#000" font-size="14" textLength="72.926">Confirmed</text><g class="entity" data-qualified-name="confirmed.success" id="ent0002" data-source-line="7"><rect x="578.98" y="181.297" width="76.355" height="50" fill="#F1F1F1" style="stroke:#181818;stroke-width:0.5;" rx="12.5" ry="12.5"/><line x1="578.98" y1="207.594" x2="655.335" y2="207.594" style="stroke:#181818;stroke-width:0.5;"/><text x="588.98" y="199.292" fill="#000" font-size="14" textLength="56.355">Success</text></g><g class="entity" data-qualified-name="confirmed.partialSuccess" id="ent0003" data-source-line="8"><rect x="673.44" y="181.297" width="125.431" height="50" fill="#F1F1F1" style="stroke:#181818;stroke-width:0.5;" rx="12.5" ry="12.5"/><line x1="673.44" y1="207.594" x2="798.871" y2="207.594" style="stroke:#181818;stroke-width:0.5;"/><text x="683.44" y="199.292" fill="#000" font-size="14" textLength="105.431">Partial Success</text></g><g class="entity" data-qualified-name="confirmed.failure" id="ent0004" data-source-line="9"><rect x="817.33" y="181.297" width="67.653" height="50" fill="#F1F1F1" style="stroke:#181818;stroke-width:0.5;" rx="12.5" ry="12.5"/><line x1="817.33" y1="207.594" x2="884.983" y2="207.594" style="stroke:#181818;stroke-width:0.5;"/><text x="827.33" y="199.292" fill="#000" font-size="14" textLength="47.653">Failure</text></g></g><g class="entity" data-qualified-name="pending" id="ent0005" data-source-line="11"><rect x="7" y="377.5" width="557.968" height="68.891" fill="#F1F1F1" style="stroke:#181818;stroke-width:0.5;" rx="12.5" ry="12.5"/><line x1="7" y1="403.797" x2="564.968" y2="403.797" style="stroke:#181818;stroke-width:0.5;"/><text x="257.751" y="395.495" fill="#000" font-size="14" textLength="56.465">Pending</text><text x="12" y="421.792" fill="#000" font-size="14" textLength="438.033">submitter = wallet (submitted and re-submitted by the wallet)</text><text x="12" y="438.089" fill="#000" font-size="14" textLength="537.968">or submitter = scope (candidate: handed off, never submitted by the wallet)</text></g><g class="entity" data-qualified-name="final" id="ent0006" data-source-line="13"><path d="M1092.48,361.29 L1409.483,361.29 A12.5,12.5 0 0 1 1421.983,373.79 L1421.983,387.587 L1079.98,387.587 L1079.98,373.79 A12.5,12.5 0 0 1 1092.48,361.29" fill="#F1F1F1"/><rect x="1079.98" y="361.29" width="342.003" height="101.297" fill="none" style="stroke:#181818;stroke-width:0.5;" rx="12.5" ry="12.5"/><line x1="1079.98" y1="387.587" x2="1421.983" y2="387.587" style="stroke:#181818;stroke-width:0.5;"/><text x="1234.34" y="379.285" fill="#000" font-size="14" textLength="33.284">Final</text><g class="entity" data-qualified-name="final.successF" id="ent0007" data-source-line="14"><rect x="1091.98" y="399.587" width="76.355" height="50" fill="#F1F1F1" style="stroke:#181818;stroke-width:0.5;" rx="12.5" ry="12.5"/><line x1="1091.98" y1="425.884" x2="1168.335" y2="425.884" style="stroke:#181818;stroke-width:0.5;"/><text x="1101.98" y="417.582" fill="#000" font-size="14" textLength="56.355">Success</text></g><g class="entity" data-qualified-name="final.partialSuccessF" id="ent0008" data-source-line="15"><rect x="1186.44" y="399.587" width="125.431" height="50" fill="#F1F1F1" style="stroke:#181818;stroke-width:0.5;" rx="12.5" ry="12.5"/><line x1="1186.44" y1="425.884" x2="1311.871" y2="425.884" style="stroke:#181818;stroke-width:0.5;"/><text x="1196.44" y="417.582" fill="#000" font-size="14" textLength="105.431">Partial Success</text></g><g class="entity" data-qualified-name="final.failureF" id="ent0009" data-source-line="16"><rect x="1330.33" y="399.587" width="67.653" height="50" fill="#F1F1F1" style="stroke:#181818;stroke-width:0.5;" rx="12.5" ry="12.5"/><line x1="1330.33" y1="425.884" x2="1397.983" y2="425.884" style="stroke:#181818;stroke-width:0.5;"/><text x="1340.33" y="417.582" fill="#000" font-size="14" textLength="47.653">Failure</text></g></g><g class="entity" data-qualified-name="rejected" id="ent0010" data-source-line="19"><rect x="506.2" y="697.59" width="441.565" height="68.891" fill="#F1F1F1" style="stroke:#181818;stroke-width:0.5;" rx="12.5" ry="12.5"/><line x1="506.2" y1="723.887" x2="947.765" y2="723.887" style="stroke:#181818;stroke-width:0.5;"/><text x="696.218" y="715.585" fill="#000" font-size="14" textLength="61.53">Rejected</text><text x="511.2" y="741.882" fill="#000" font-size="14" textLength="421.565">reason = discarded | detached | invalidated | stale | expired</text><text x="511.2" y="758.179" fill="#000" font-size="14" textLength="308.383">keeps validity bound while it may still settle</text></g><g class="start_entity" data-qualified-name=".start." id="ent0011" data-source-line="21"><ellipse cx="342.98" cy="16" rx="10" ry="10" fill="#222" style="stroke:#222;stroke-width:1;"/></g><!--link *start* to pending--><g class="link" data-entity-1="ent0011" data-entity-2="ent0005" id="lnk12" data-source-line="21" data-link-type="dependency"><path d="M340.6,26.1 C335.26,46.74 322.27,98.77 314.98,143 C301.18,226.79 292.757,321.465 288.807,372.375" style="stroke:#181818;stroke-width:1;" fill="none" id="*start*-to-pending"/><polygon points="288.42,377.36,293.104,368.696,288.807,372.375,285.128,368.078,288.42,377.36" fill="#181818" style="stroke:#181818;stroke-width:1;stroke-linejoin:miter;stroke-miterlimit:10;"/><text x="315.98" y="198.207" fill="#000" font-size="13" textLength="200.929">spend | watch_for | spend(use)</text></g><!--link *start* to confirmed--><g class="link" data-entity-1="ent0011" data-entity-2="ent0001" id="lnk13" data-source-line="22" data-link-type="dependency"><path d="M351.98,20.99 C388.03,37.03 520.481,95.929 621.061,140.649" style="stroke:#181818;stroke-width:1;" fill="none" id="*start*-to-confirmed"/><polygon points="625.63,142.68,619.031,135.369,621.061,140.649,615.781,142.679,625.63,142.68" fill="#181818" style="stroke:#181818;stroke-width:1;stroke-linejoin:miter;stroke-miterlimit:10;"/><text x="506.1" y="89.067" fill="#000" font-size="13" textLength="35.775">apply</text></g><!--link pending to confirmed--><g class="link" data-entity-1="ent0005" data-entity-2="ent0001" id="lnk14" data-source-line="23" data-link-type="dependency"><path d="M324.05,377.02 C354.29,351.48 398.57,317.08 441.98,294.29 C480.87,273.88 520.05,258.031 561.92,243.681" style="stroke:#181818;stroke-width:1;" fill="none" id="pending-to-confirmed"/><polygon points="566.65,242.06,556.839,241.194,561.92,243.681,559.433,248.762,566.65,242.06" fill="#181818" style="stroke:#181818;stroke-width:1;stroke-linejoin:miter;stroke-miterlimit:10;"/><text x="442.98" y="307.357" fill="#000" font-size="13" textLength="35.775">apply</text></g><!--link confirmed to pending--><g class="link" data-entity-1="ent0001" data-entity-2="ent0005" id="lnk16" data-source-line="25" data-link-type="dependency"><path d="M636.87,244.76 C594.65,265.53 545.03,289.77 499.98,311.29 C453.39,333.56 405.358,355.941 363.988,375.071" style="stroke:#181818;stroke-width:1;" fill="none" id="confirmed-to-pending"/><polygon points="359.45,377.17,369.298,377.023,363.988,375.071,365.94,369.762,359.45,377.17" fill="#181818" style="stroke:#181818;stroke-width:1;stroke-linejoin:miter;stroke-miterlimit:10;"/><text x="533.48" y="307.357" fill="#000" font-size="13" textLength="51.416">rollback</text></g><!--link confirmed to final--><g class="link" data-entity-1="ent0001" data-entity-2="ent0006" id="lnk15" data-source-line="24" data-link-type="dependency"><path d="M879.18,244.77 C920.05,259.97 964.54,277.19 1004.98,294.29 C1053.42,314.77 1101.709,337.303 1145.929,358.693" style="stroke:#181818;stroke-width:1;" fill="none" id="confirmed-to-final"/><polygon points="1150.43,360.87,1144.07,353.35,1145.929,358.693,1140.586,360.552,1150.43,360.87" fill="#181818" style="stroke:#181818;stroke-width:1;stroke-linejoin:miter;stroke-miterlimit:10;"/><text x="1039.95" y="307.357" fill="#000" font-size="13" textLength="46.439">finalize</text></g><!--link pending to rejected--><g class="link" data-entity-1="ent0005" data-entity-2="ent0010" id="lnk17" data-source-line="26" data-link-type="dependency"><path d="M252.04,446.81 C217.09,485.86 172.37,550.57 207.98,596.59 C245.55,645.12 377.216,678.463 500.836,700.223" style="stroke:#181818;stroke-width:1;" fill="none" id="pending-to-rejected"/><polygon points="505.76,701.09,497.59,695.59,500.836,700.223,496.203,703.469,505.76,701.09" fill="#181818" style="stroke:#181818;stroke-width:1;stroke-linejoin:miter;stroke-miterlimit:10;"/><text x="208.98" y="592.657" fill="#000" font-size="13" textLength="441.022">discard | detach_transaction | sibling settles | validity bound passes</text></g><!--link rejected to confirmed--><g class="link" data-entity-1="ent0010" data-entity-2="ent0001" id="lnk18" data-source-line="27" data-link-type="dependency"><path d="M768.17,697.41 C781.97,683.6 795.7,666.41 802.98,647.59 C859.67,501.16 847.73,444.8 802.98,294.29 C797.8,276.87 791.255,263.823 781.285,248.723" style="stroke:#181818;stroke-width:1;" fill="none" id="rejected-to-confirmed"/><polygon points="778.53,244.55,780.151,254.265,781.285,248.723,786.827,249.857,778.53,244.55" fill="#181818" style="stroke:#181818;stroke-width:1;stroke-linejoin:miter;stroke-miterlimit:10;"/><text x="840.51" y="525.657" fill="#000" font-size="13" textLength="367.834">apply (outstanding transaction settled by another party)</text></g><!--link confirmed to rejected--><g class="link" data-entity-1="ent0001" data-entity-2="ent0010" id="lnk19" data-source-line="28" data-link-type="dependency"><path d="M736.96,244.62 C734.74,352.69 729.652,600.691 727.782,692.231" style="stroke:#181818;stroke-width:1;" fill="none" id="confirmed-to-rejected"/><polygon points="727.68,697.23,731.863,688.314,727.782,692.231,723.865,688.15,727.68,697.23" fill="#181818" style="stroke:#181818;stroke-width:1;stroke-linejoin:miter;stroke-miterlimit:10;"/><text x="732.41" y="525.657" fill="#000" font-size="13" textLength="47.347">discard</text></g><?plantuml-src ZLDDRzim3BthLn2-B1aMeBiQs2u3SXxMupeKj4pFR1H9aEHcthh_FjhoH-Rcq9FvyVX4FjBluecjnu1dC6mfzPx0EzCFZbfprjKKoSF7kxkhQ41xcgCg9am4sjc6mvbgm0Z5bzahu8y2o93OQKqnZe3xR1TBKeWJexc_mdpD8NY5RP1D5sW47RDTgBzJ8vvipVPdPiXsKShRrPbJeW2Vu8B6K8BT79EMRGs13ckWwY6rD27t3zQ5_nYYTYBNJaiTr_9e2QsOKkUQvWDOUgOLloMR1MlOocpZ28DrGwZZMvGwlacgurQhgOb0JwJJjBHlaoDo1SBeh4nQSzGOXj5UeAQ4kXrDjizenj47JxWCoPT-UGvKFzWJaOymGZZrKBbE1BwqB2XESCPUIjWOY9II8QM-l_y1XyFdPNUohy4KoWictJuselzBZkswIFkbOBsw4j1xqwkPudPsZGpvl88oV_atRT9hDy4PKw4-NR5BVX6ld6LQH7fCyej4r8b5HUcSApEKvNcZH3RQU8oHebeORtOFEzSbqJgtSFr2vXql3QsJOmlZbVJxpKIlErR_0000?></g></svg>